<svg width="174" height="174" viewBox="0 0 174 174" fill="none" xmlns="http://www.w3.org/2000/svg">
<path d="M0 0H174V174H0V0Z" fill="#0066FF"/>
<path d="M99.5711 100.155L88.0204 90.6766C93.7803 81.3545 99.9933 75.1589 106.659 72.0897C112.24 69.5201 116.476 71.3745 119.367 77.653C120.188 79.4358 121.618 85.4 123.659 95.5457C125.742 105.578 127.89 112.997 130.103 117.803C132.315 122.609 135.003 125.693 138.167 127.054C135.289 132.231 131.487 135.908 126.758 138.085C122.03 140.262 117.945 140.264 114.502 138.091C111.136 135.883 108.08 131.795 105.332 125.826C101.717 128.994 97.6619 131.612 93.1662 133.682C82.6246 138.536 72.5994 139.206 63.0905 135.693C53.6592 132.144 46.017 124.014 40.1641 111.302C37.6659 105.876 36.2947 99.8373 36.0504 93.1858C35.7705 86.4568 36.6558 79.708 38.7062 72.9393C40.7567 66.1707 44.4965 59.7046 49.9257 53.5411C55.3967 47.2643 61.7753 42.4485 69.0614 39.0938C76.425 35.7034 82.7855 34.4189 88.1427 35.2403C93.5775 36.026 97.4012 38.8218 99.6139 43.6275C101.827 48.4332 101.968 52.9242 100.04 57.1003C98.1525 61.1633 95.1937 64.1227 91.1631 65.9785C87.1325 67.8343 83.0968 68.659 79.0562 68.4527C75.0573 68.1332 71.3396 66.7917 67.9028 64.4285C64.6451 68.371 62.8609 73.9836 62.5503 81.2664C62.2397 88.5491 63.5654 95.4072 66.5276 101.841C69.4898 108.274 72.9605 112.548 76.9398 114.661C80.9609 116.661 84.8705 116.787 88.6686 115.038C94.172 112.505 97.8061 107.543 99.5711 100.155Z" fill="white"/>
</svg>
