<svg width="130" height="130" viewBox="0 0 130 130" fill="none" xmlns="http://www.w3.org/2000/svg">
<path d="M77.5711 78.1545L66.0204 68.6766C71.7803 59.3545 77.9933 53.1589 84.6593 50.0897C90.2402 47.5201 94.476 49.3745 97.3668 55.653C98.1876 57.4358 99.6185 63.4 101.659 73.5457C103.742 83.5782 105.89 90.9973 108.103 95.803C110.315 100.609 113.003 103.693 116.167 105.054C113.289 110.231 109.487 113.908 104.758 116.085C100.03 118.262 95.9446 118.264 92.5017 116.091C89.1364 113.883 86.0797 109.795 83.3317 103.826C79.7171 106.994 75.6619 109.612 71.1662 111.682C60.6246 116.536 50.5994 117.206 41.0905 113.693C31.6592 110.144 24.017 102.014 18.1641 89.3018C15.6659 83.876 14.2947 77.8373 14.0504 71.1858C13.7705 64.4568 14.6558 57.708 16.7062 50.9393C18.7567 44.1707 22.4965 37.7046 27.9257 31.5411C33.3967 25.2643 39.7753 20.4485 47.0614 17.0938C54.425 13.7034 60.7855 12.4189 66.1427 13.2403C71.5775 14.026 75.4012 16.8218 77.6139 21.6275C79.8266 26.4332 79.9685 30.9242 78.0396 35.1003C76.1525 39.1633 73.1937 42.1227 69.1631 43.9785C65.1325 45.8343 61.0968 46.659 57.0562 46.4527C53.0573 46.1332 49.3396 44.7917 45.9028 42.4285C42.6451 46.371 40.8609 51.9836 40.5503 59.2664C40.2397 66.5491 41.5654 73.4072 44.5276 79.8407C47.4898 86.2742 50.9605 90.5477 54.9398 92.6612C58.9609 94.6614 62.8705 94.7872 66.6686 93.0384C72.172 90.5045 75.8061 85.5432 77.5711 78.1545Z" fill="black"/>
</svg>
